<?xml version="1.0" encoding="UTF-8"?>
<!DOCTYPE svg PUBLIC "-//W3C//DTD SVG 1.1//EN" "http://www.w3.org/Graphics/SVG/1.1/DTD/svg11.dtd">
<svg xmlns="http://www.w3.org/2000/svg" version="1.1" width="4100px" height="4100px" style="shape-rendering:geometricPrecision; text-rendering:geometricPrecision; image-rendering:optimizeQuality; fill-rule:evenodd; clip-rule:evenodd" xmlns:xlink="http://www.w3.org/1999/xlink">
<g><path style="opacity:0.997" fill="#1398a6" d="M 2037.5,945.5 C 2044.47,947.479 2051.13,950.312 2057.5,954C 2193.82,1028.49 2310.65,1126.66 2408,1248.5C 2470.04,1328.22 2516.71,1416.56 2548,1513.5C 2566.77,1574.47 2578.11,1636.8 2582,1700.5C 2583.47,1899.82 2583.97,2099.16 2583.5,2298.5C 2532.5,2298.83 2481.5,2298.5 2430.5,2297.5C 2432.25,2276.88 2433.75,2256.21 2435,2235.5C 2435.67,2098.17 2435.67,1960.83 2435,1823.5C 2432.79,1790.46 2428.45,1757.79 2422,1725.5C 2409.59,1735.91 2398.59,1747.57 2389,1760.5C 2358.95,1803.61 2336.61,1850.61 2322,1901.5C 2305.94,1956.46 2295.27,2012.46 2290,2069.5C 2289.5,2142.5 2289.33,2215.5 2289.5,2288.5C 2236.5,2288.67 2183.5,2288.5 2130.5,2288C 2130.04,2287.59 2129.71,2287.09 2129.5,2286.5C 2132.49,2173.55 2133.99,2060.55 2134,1947.5C 2132.7,1887.4 2124.03,1828.4 2108,1770.5C 2099.76,1742.86 2087.92,1717.02 2072.5,1693C 2091.98,1642.19 2116.82,1594.36 2147,1549.5C 2152.01,1543 2157.17,1536.66 2162.5,1530.5C 2167.1,1534.6 2171.6,1538.93 2176,1543.5C 2193.8,1568.76 2208.8,1595.76 2221,1624.5C 2232.86,1652.26 2244.03,1680.26 2254.5,1708.5C 2269,1678.82 2286.5,1651.15 2307,1625.5C 2329.06,1598.44 2352.89,1572.94 2378.5,1549C 2355.54,1480.92 2325.21,1416.42 2287.5,1355.5C 2229.52,1392.97 2180.02,1439.64 2139,1495.5C 2082.57,1575.64 2041.24,1663.3 2015,1758.5C 1982.22,1877.94 1964.56,1999.61 1962,2123.5C 1960.74,2181.91 1962.24,2240.25 1966.5,2298.5C 1915.17,2298.5 1863.83,2298.5 1812.5,2298.5C 1814.71,2231.51 1816.71,2164.51 1818.5,2097.5C 1818.23,2021.09 1803.06,1947.75 1773,1877.5C 1755.78,1835.71 1734.44,1796.37 1709,1759.5C 1709.67,1715.82 1717.67,1673.49 1733,1632.5C 1737.8,1619.75 1742.8,1607.09 1748,1594.5C 1750.01,1589.8 1752.51,1585.47 1755.5,1581.5C 1788.83,1623.67 1821.99,1666 1855,1708.5C 1874.41,1632.36 1905.25,1561.36 1947.5,1495.5C 1910.98,1464.14 1874.65,1432.64 1838.5,1401C 1867.25,1360.84 1896.25,1320.84 1925.5,1281C 1928.21,1280.26 1930.55,1280.93 1932.5,1283C 1973.66,1312.08 2014.99,1340.91 2056.5,1369.5C 2082.07,1336.75 2110.07,1305.91 2140.5,1277C 2156.83,1262 2173.17,1247 2189.5,1232C 2145.45,1188.11 2095.45,1152.61 2039.5,1125.5C 1961.98,1164.5 1895.81,1217.83 1841,1285.5C 1780.73,1362.62 1734.73,1447.95 1703,1541.5C 1672.34,1630.8 1652.67,1722.46 1644,1816.5C 1643.33,1954.17 1643.33,2091.83 1644,2229.5C 1645.54,2252.48 1646.71,2275.48 1647.5,2298.5C 1596.83,2298.5 1546.17,2298.5 1495.5,2298.5C 1495.33,2099.5 1495.5,1900.5 1496,1701.5C 1506.15,1551.38 1553.81,1414.71 1639,1291.5C 1687.25,1223.22 1742.75,1161.06 1805.5,1105C 1876.47,1042.67 1953.8,989.508 2037.5,945.5 Z"/></g>
<g><path style="opacity:0.968" fill="#000000" d="M 1451.5,2386.5 C 1478.5,2386.33 1505.5,2386.5 1532.5,2387C 1567.21,2387.91 1588.71,2405.07 1597,2438.5C 1601.54,2461 1599.88,2483 1592,2504.5C 1578.33,2532.43 1555.83,2546.93 1524.5,2548C 1512.17,2548.5 1499.84,2548.67 1487.5,2548.5C 1487.5,2590.5 1487.5,2632.5 1487.5,2674.5C 1475.17,2674.5 1462.83,2674.5 1450.5,2674.5C 1450.17,2578.43 1450.5,2482.43 1451.5,2386.5 Z M 1487.5,2414.5 C 1498.51,2414.33 1509.51,2414.5 1520.5,2415C 1549.12,2418.63 1563.12,2434.96 1562.5,2464C 1562.8,2482.46 1556.46,2498.13 1543.5,2511C 1536.85,2515.66 1529.51,2518.66 1521.5,2520C 1510.17,2520.5 1498.84,2520.67 1487.5,2520.5C 1487.5,2485.17 1487.5,2449.83 1487.5,2414.5 Z"/></g>
<g><path style="opacity:0.965" fill="#000000" d="M 1636.5,2386.5 C 1678.5,2386.5 1720.5,2386.5 1762.5,2386.5C 1762.5,2396.17 1762.5,2405.83 1762.5,2415.5C 1732.83,2415.5 1703.17,2415.5 1673.5,2415.5C 1673.5,2445.83 1673.5,2476.17 1673.5,2506.5C 1697.5,2506.5 1721.5,2506.5 1745.5,2506.5C 1745.5,2516.17 1745.5,2525.83 1745.5,2535.5C 1721.5,2535.5 1697.5,2535.5 1673.5,2535.5C 1673.5,2572.17 1673.5,2608.83 1673.5,2645.5C 1704.5,2645.5 1735.5,2645.5 1766.5,2645.5C 1766.5,2655.17 1766.5,2664.83 1766.5,2674.5C 1723.17,2674.5 1679.83,2674.5 1636.5,2674.5C 1636.5,2578.5 1636.5,2482.5 1636.5,2386.5 Z"/></g>
<g><path style="opacity:0.961" fill="#000000" d="M 1812.5,2386.5 C 1843.86,2386.08 1875.19,2386.58 1906.5,2388C 1937.99,2392.82 1956.16,2410.99 1961,2442.5C 1965.85,2471.94 1960.51,2499.28 1945,2524.5C 1941.17,2528.33 1937.33,2532.17 1933.5,2536C 1929.69,2539.24 1925.36,2541.4 1920.5,2542.5C 1939.17,2586.5 1957.83,2630.5 1976.5,2674.5C 1964.48,2674.83 1952.48,2674.5 1940.5,2673.5C 1921.87,2631.92 1903.54,2590.25 1885.5,2548.5C 1873.17,2548.5 1860.83,2548.5 1848.5,2548.5C 1848.5,2590.5 1848.5,2632.5 1848.5,2674.5C 1836.08,2675.13 1823.92,2674.47 1812,2672.5C 1811.36,2577.4 1811.52,2482.07 1812.5,2386.5 Z M 1848.5,2414.5 C 1860.17,2414.33 1871.84,2414.5 1883.5,2415C 1909.21,2417.04 1923.37,2430.87 1926,2456.5C 1927.64,2472.65 1924.3,2487.65 1916,2501.5C 1908.66,2512.28 1898.5,2518.45 1885.5,2520C 1873.15,2520.83 1860.82,2520.67 1848.5,2519.5C 1849.49,2484.7 1849.49,2449.7 1848.5,2414.5 Z"/></g>
<g><path style="opacity:0.965" fill="#000000" d="M 2073.5,2386.5 C 2087.17,2386.5 2100.83,2386.5 2114.5,2386.5C 2114.5,2395.83 2114.5,2405.17 2114.5,2414.5C 2102.16,2414.33 2089.83,2414.5 2077.5,2415C 2059.27,2417.9 2048.1,2428.4 2044,2446.5C 2041.41,2459.16 2043.74,2470.83 2051,2481.5C 2055.5,2486 2060,2490.5 2064.5,2495C 2079.53,2505.85 2094.19,2517.18 2108.5,2529C 2126.59,2547.74 2135.59,2570.24 2135.5,2596.5C 2134.93,2643.57 2111.26,2669.41 2064.5,2674C 2046.17,2674.5 2027.84,2674.67 2009.5,2674.5C 2009.5,2665.17 2009.5,2655.83 2009.5,2646.5C 2027.5,2646.67 2045.5,2646.5 2063.5,2646C 2082.82,2642.01 2093.98,2630.18 2097,2610.5C 2101.03,2585.26 2093.2,2564.43 2073.5,2548C 2063.11,2539.95 2052.45,2532.28 2041.5,2525C 2008.09,2499.9 1998.26,2467.4 2012,2427.5C 2018.38,2412.45 2028.88,2401.28 2043.5,2394C 2053.31,2390.21 2063.31,2387.71 2073.5,2386.5 Z"/></g>
<g><path style="opacity:0.969" fill="#000000" d="M 2174.5,2386.5 C 2186.83,2386.5 2199.17,2386.5 2211.5,2386.5C 2211.5,2482.5 2211.5,2578.5 2211.5,2674.5C 2199.17,2674.5 2186.83,2674.5 2174.5,2674.5C 2174.5,2578.5 2174.5,2482.5 2174.5,2386.5 Z"/></g>
<g><path style="opacity:0.968" fill="#000000" d="M 2313.5,2386.5 C 2332.24,2385.85 2350.74,2386.52 2369,2388.5C 2389.82,2483.78 2410.32,2579.12 2430.5,2674.5C 2419.15,2674.83 2407.81,2674.5 2396.5,2673.5C 2389.83,2646.17 2383.17,2618.84 2376.5,2591.5C 2351.84,2590.5 2327.18,2590.17 2302.5,2590.5C 2296.37,2618.47 2290.37,2646.47 2284.5,2674.5C 2272.5,2674.5 2260.5,2674.5 2248.5,2674.5C 2269.92,2578.42 2291.58,2482.42 2313.5,2386.5 Z M 2338.5,2414.5 C 2339.5,2414.41 2340.33,2414.75 2341,2415.5C 2350.7,2464.15 2360.2,2512.81 2369.5,2561.5C 2349.5,2561.5 2329.5,2561.5 2309.5,2561.5C 2319.04,2512.48 2328.7,2463.48 2338.5,2414.5 Z"/></g>
<g><path style="opacity:0.965" fill="#000000" d="M 2464.5,2386.5 C 2485.08,2386.17 2505.58,2386.51 2526,2387.5C 2547.67,2467.5 2569.33,2547.5 2591,2627.5C 2591.33,2547.5 2591.67,2467.5 2592,2387.5C 2604.42,2386.51 2616.92,2386.18 2629.5,2386.5C 2629.5,2482.5 2629.5,2578.5 2629.5,2674.5C 2611.83,2674.5 2594.17,2674.5 2576.5,2674.5C 2551.98,2588.76 2527.14,2503.1 2502,2417.5C 2501.5,2503.17 2501.33,2588.83 2501.5,2674.5C 2489.17,2674.5 2476.83,2674.5 2464.5,2674.5C 2464.5,2578.5 2464.5,2482.5 2464.5,2386.5 Z"/></g>
<g><path style="opacity:0.971" fill="#000000" d="M 1148.5,2832.5 C 1166.37,2831.4 1183.71,2833.9 1200.5,2840C 1223.23,2851.43 1235.73,2869.93 1238,2895.5C 1238.67,2951.5 1238.67,3007.5 1238,3063.5C 1233.2,3099.64 1212.7,3120.14 1176.5,3125C 1153.71,3128.41 1132.05,3125.07 1111.5,3115C 1092.69,3102.23 1082.53,3084.4 1081,3061.5C 1080.33,3006.83 1080.33,2952.17 1081,2897.5C 1086.02,2857.73 1108.52,2836.06 1148.5,2832.5 Z M 1153.5,2860.5 C 1171.01,2859.01 1185.17,2865.01 1196,2878.5C 1198.74,2883.13 1200.41,2888.13 1201,2893.5C 1201.98,2952.54 1201.65,3011.54 1200,3070.5C 1196.15,3082.5 1188.32,3090.67 1176.5,3095C 1156.14,3101.53 1138.64,3097.03 1124,3081.5C 1120.8,3075.9 1118.8,3069.9 1118,3063.5C 1117.02,3005.14 1117.36,2946.8 1119,2888.5C 1121.46,2878.37 1127.3,2870.87 1136.5,2866C 1142.04,2863.37 1147.7,2861.54 1153.5,2860.5 Z"/></g>
<g><path style="opacity:0.965" fill="#000000" d="M 2848.5,2832.5 C 2869.64,2830.64 2889.64,2834.47 2908.5,2844C 2925.66,2855.18 2935.49,2871.01 2938,2891.5C 2939.6,2945.15 2939.94,2998.82 2939,3052.5C 2938.71,3093.94 2918.21,3118.11 2877.5,3125C 2865.83,3125.67 2854.17,3125.67 2842.5,3125C 2807.44,3120.28 2787.28,3100.44 2782,3065.5C 2781.33,3007.83 2781.33,2950.17 2782,2892.5C 2785.23,2867.27 2798.4,2849.44 2821.5,2839C 2830.38,2835.75 2839.38,2833.59 2848.5,2832.5 Z M 2853.5,2860.5 C 2873.74,2858.61 2888.91,2866.28 2899,2883.5C 2899.82,2885.79 2900.49,2888.12 2901,2890.5C 2901.67,2949.5 2901.67,3008.5 2901,3067.5C 2898.61,3080.22 2891.44,3089.06 2879.5,3094C 2858.92,3101.82 2840.76,3097.98 2825,3082.5C 2822.16,3077.83 2820.16,3072.83 2819,3067.5C 2818.33,3008.5 2818.33,2949.5 2819,2890.5C 2824.14,2873.19 2835.64,2863.19 2853.5,2860.5 Z"/></g>
<g><path style="opacity:0.969" fill="#000000" d="M 987.5,2835.5 C 1010.17,2835.5 1032.83,2835.5 1055.5,2835.5C 1055.5,2844.83 1055.5,2854.17 1055.5,2863.5C 1034.16,2863.33 1012.83,2863.5 991.5,2864C 972.389,2867.78 961.556,2879.28 959,2898.5C 958.333,2952.17 958.333,3005.83 959,3059.5C 961.502,3078.33 972.002,3089.83 990.5,3094C 1012.13,3095.42 1033.8,3095.92 1055.5,3095.5C 1055.5,3104.83 1055.5,3114.17 1055.5,3123.5C 1031.48,3123.85 1007.48,3123.35 983.5,3122C 946.697,3116.53 926.197,3095.36 922,3058.5C 921.333,3005.83 921.333,2953.17 922,2900.5C 926.43,2861.24 948.264,2839.57 987.5,2835.5 Z"/></g>
<g><path style="opacity:0.966" fill="#000000" d="M 1281.5,2835.5 C 1302.17,2835.5 1322.83,2835.5 1343.5,2835.5C 1364.69,2915.9 1386.19,2996.24 1408,3076.5C 1408.5,2996.17 1408.67,2915.83 1408.5,2835.5C 1421.17,2835.5 1433.83,2835.5 1446.5,2835.5C 1446.5,2931.5 1446.5,3027.5 1446.5,3123.5C 1428.83,3123.5 1411.17,3123.5 1393.5,3123.5C 1368.77,3037.49 1343.94,2951.49 1319,2865.5C 1318.5,2951.5 1318.33,3037.5 1318.5,3123.5C 1306.17,3123.5 1293.83,3123.5 1281.5,3123.5C 1281.5,3027.5 1281.5,2931.5 1281.5,2835.5 Z"/></g>
<g><path style="opacity:0.967" fill="#000000" d="M 1556.5,2835.5 C 1571.83,2835.5 1587.17,2835.5 1602.5,2835.5C 1602.5,2844.83 1602.5,2854.17 1602.5,2863.5C 1588.83,2863.33 1575.16,2863.5 1561.5,2864C 1549.08,2866.79 1540.25,2873.95 1535,2885.5C 1526.41,2908.65 1531.91,2927.81 1551.5,2943C 1565.35,2953.09 1579.01,2963.42 1592.5,2974C 1617.45,2997.5 1627.28,3026.33 1622,3060.5C 1615.97,3096.53 1594.81,3117.03 1558.5,3122C 1538.19,3123.3 1517.86,3123.8 1497.5,3123.5C 1497.5,3114.17 1497.5,3104.83 1497.5,3095.5C 1514.5,3095.67 1531.5,3095.5 1548.5,3095C 1567.85,3092.99 1579.68,3082.49 1584,3063.5C 1589.6,3038.96 1583.43,3017.79 1565.5,3000C 1553.7,2990.27 1541.37,2981.27 1528.5,2973C 1495.69,2947.63 1486.19,2915.13 1500,2875.5C 1511.53,2851.8 1530.36,2838.46 1556.5,2835.5 Z"/></g>
<g><path style="opacity:0.97" fill="#000000" d="M 1640.5,2835.5 C 1691.17,2835.5 1741.83,2835.5 1792.5,2835.5C 1792.5,2844.83 1792.5,2854.17 1792.5,2863.5C 1773.17,2863.5 1753.83,2863.5 1734.5,2863.5C 1734.5,2950.17 1734.5,3036.83 1734.5,3123.5C 1722.17,3123.5 1709.83,3123.5 1697.5,3123.5C 1697.5,3036.83 1697.5,2950.17 1697.5,2863.5C 1678.5,2863.5 1659.5,2863.5 1640.5,2863.5C 1640.5,2854.17 1640.5,2844.83 1640.5,2835.5 Z"/></g>
<g><path style="opacity:0.971" fill="#000000" d="M 1829.5,2835.5 C 1859.17,2835.33 1888.84,2835.5 1918.5,2836C 1954.82,2839.32 1974.99,2859.16 1979,2895.5C 1982.75,2923.68 1977.09,2949.68 1962,2973.5C 1955.36,2981.73 1947.19,2987.9 1937.5,2992C 1956.4,3035.52 1975.4,3079.02 1994.5,3122.5C 1982.51,3123.67 1970.51,3123.83 1958.5,3123C 1939.87,3081.57 1921.37,3040.07 1903,2998.5C 1890.58,2997.51 1878.08,2997.18 1865.5,2997.5C 1865.5,3039.5 1865.5,3081.5 1865.5,3123.5C 1853.5,3123.5 1841.5,3123.5 1829.5,3123.5C 1829.5,3027.5 1829.5,2931.5 1829.5,2835.5 Z M 1866.5,2863.5 C 1879.84,2863.33 1893.17,2863.5 1906.5,2864C 1932.02,2869.65 1944.35,2885.65 1943.5,2912C 1944.48,2933.03 1936.81,2950.03 1920.5,2963C 1914.2,2966.21 1907.54,2968.21 1900.5,2969C 1889.17,2969.5 1877.84,2969.67 1866.5,2969.5C 1866.5,2934.17 1866.5,2898.83 1866.5,2863.5 Z"/></g>
<g><path style="opacity:0.972" fill="#000000" d="M 2019.5,2835.5 C 2031.83,2835.5 2044.17,2835.5 2056.5,2835.5C 2056.33,2913.17 2056.5,2990.83 2057,3068.5C 2060.94,3087.43 2072.61,3097.43 2092,3098.5C 2112.33,3097.84 2124.33,3087.5 2128,3067.5C 2128.5,2990.17 2128.67,2912.83 2128.5,2835.5C 2140.83,2835.5 2153.17,2835.5 2165.5,2835.5C 2165.67,2911.83 2165.5,2988.17 2165,3064.5C 2159.58,3107.24 2135.25,3127.57 2092,3125.5C 2050.14,3127.28 2026.14,3107.62 2020,3066.5C 2019.5,2989.5 2019.33,2912.5 2019.5,2835.5 Z"/></g>
<g><path style="opacity:0.958" fill="#000000" d="M 2265.5,2835.5 C 2288.5,2835.5 2311.5,2835.5 2334.5,2835.5C 2334.82,2844.75 2334.48,2853.92 2333.5,2863C 2312.17,2863.33 2290.83,2863.67 2269.5,2864C 2248.21,2869.3 2237.21,2882.97 2236.5,2905C 2237.31,2953.44 2237.31,3002.44 2236.5,3052C 2236.33,3074.36 2247,3088.36 2268.5,3094C 2290.47,3095.41 2312.47,3095.91 2334.5,3095.5C 2334.82,3104.75 2334.48,3113.92 2333.5,3123C 2309.48,3123.85 2285.48,3123.52 2261.5,3122C 2220.97,3115.46 2200.47,3091.63 2200,3050.5C 2199.33,3002.83 2199.33,2955.17 2200,2907.5C 2201.14,2864.53 2222.97,2840.53 2265.5,2835.5 Z"/></g>
<g><path style="opacity:0.97" fill="#000000" d="M 2349.5,2835.5 C 2400.17,2835.5 2450.83,2835.5 2501.5,2835.5C 2501.5,2844.83 2501.5,2854.17 2501.5,2863.5C 2482.17,2863.5 2462.83,2863.5 2443.5,2863.5C 2443.5,2950.17 2443.5,3036.83 2443.5,3123.5C 2431.17,3123.5 2418.83,3123.5 2406.5,3123.5C 2406.5,3036.83 2406.5,2950.17 2406.5,2863.5C 2387.5,2863.5 2368.5,2863.5 2349.5,2863.5C 2349.5,2854.17 2349.5,2844.83 2349.5,2835.5 Z"/></g>
<g><path style="opacity:0.97" fill="#000000" d="M 2538.5,2835.5 C 2550.83,2835.5 2563.17,2835.5 2575.5,2835.5C 2575.5,2931.5 2575.5,3027.5 2575.5,3123.5C 2563.17,3123.5 2550.83,3123.5 2538.5,3123.5C 2538.5,3027.5 2538.5,2931.5 2538.5,2835.5 Z"/></g>
<g><path style="opacity:0.967" fill="#000000" d="M 2687.5,2835.5 C 2710.5,2835.5 2733.5,2835.5 2756.5,2835.5C 2756.5,2844.83 2756.5,2854.17 2756.5,2863.5C 2735.16,2863.33 2713.83,2863.5 2692.5,2864C 2675.26,2866.86 2664.42,2876.69 2660,2893.5C 2659.33,2950.5 2659.33,3007.5 2660,3064.5C 2663.94,3080.77 2674.1,3090.6 2690.5,3094C 2712.47,3095.41 2734.47,3095.91 2756.5,3095.5C 2756.5,3104.83 2756.5,3114.17 2756.5,3123.5C 2732.14,3123.86 2707.81,3123.36 2683.5,3122C 2651.39,3118.21 2631.55,3100.71 2624,3069.5C 2622.86,3039.53 2622.36,3009.53 2622.5,2979.5C 2622.67,2951.5 2622.83,2923.5 2623,2895.5C 2626.13,2869.02 2639.97,2850.86 2664.5,2841C 2672.15,2838.51 2679.81,2836.68 2687.5,2835.5 Z"/></g>
<g><path style="opacity:0.975" fill="#000000" d="M 2982.5,2835.5 C 3002.84,2835.17 3023.18,2835.5 3043.5,2836.5C 3065.43,2917.13 3087.27,2997.8 3109,3078.5C 3109.5,2997.5 3109.67,2916.5 3109.5,2835.5C 3121.83,2835.5 3134.17,2835.5 3146.5,2835.5C 3146.5,2931.5 3146.5,3027.5 3146.5,3123.5C 3128.92,3123.83 3111.42,3123.49 3094,3122.5C 3069.18,3037.55 3044.51,2952.55 3020,2867.5C 3019.5,2952.83 3019.33,3038.17 3019.5,3123.5C 3007.17,3123.5 2994.83,3123.5 2982.5,3123.5C 2982.5,3027.5 2982.5,2931.5 2982.5,2835.5 Z"/></g>
</svg>
