<?xml version="1.0" encoding="UTF-8" standalone="no"?>
<!DOCTYPE svg PUBLIC "-//W3C//DTD SVG 1.1//EN" "http://www.w3.org/Graphics/SVG/1.1/DTD/svg11.dtd">
<svg xmlns="http://www.w3.org/2000/svg" version="1.1" viewBox="0.00 0.00 1448.00 1448.00">
<path fill="#104e8b" d="
  M 796.51 604.33
  C 807.36 582.50 822.71 564.53 840.15 547.75
  Q 840.51 547.41 840.35 546.93
  Q 828.39 511.06 808.66 478.82
  A 0.72 0.71 57.5 0 0 807.66 478.59
  C 747.08 517.84 716.47 587.05 703.09 656.02
  C 693.24 706.82 690.24 759.16 694.26 811.20
  Q 694.31 811.75 693.76 811.75
  L 641.25 811.75
  Q 640.69 811.75 640.70 811.19
  Q 641.55 780.41 642.73 749.69
  C 644.48 704.02 629.73 659.10 604.23 621.52
  Q 603.95 621.10 603.96 620.60
  C 604.32 599.63 610.97 578.36 619.85 559.44
  A 0.31 0.31 0.0 0 1 620.38 559.38
  L 655.12 604.16
  A 0.38 0.37 32.8 0 0 655.78 604.02
  Q 665.96 563.62 688.26 528.47
  Q 688.58 527.97 688.13 527.59
  L 650.19 495.30
  A 0.53 0.52 38.8 0 1 650.11 494.59
  L 680.43 452.97
  A 0.51 0.51 0.0 0 1 681.12 452.85
  L 726.50 484.48
  A 0.29 0.29 0.0 0 0 726.89 484.41
  C 739.68 466.48 757.20 450.41 773.60 435.85
  A 0.67 0.67 0.0 0 0 773.63 434.88
  Q 750.32 411.98 721.09 397.34
  A 1.24 1.22 44.5 0 0 719.98 397.34
  C 632.52 440.99 591.22 541.97 581.35 633.49
  Q 580.39 642.31 580.42 653.44
  Q 580.58 717.76 580.48 782.08
  C 580.47 791.42 581.37 801.48 581.77 811.21
  Q 581.79 811.75 581.26 811.75
  L 529.01 811.75
  A 0.51 0.51 0.0 0 1 528.50 811.24
  Q 528.50 716.22 528.50 621.00
  Q 528.49 608.17 528.92 601.01
  C 535.96 483.05 618.68 387.58 719.48 334.93
  A 2.26 2.24 -44.7 0 1 721.59 334.93
  C 822.91 388.18 904.70 483.45 911.76 602.00
  C 912.28 610.65 912.47 622.77 912.47 633.43
  Q 912.53 722.35 912.49 811.25
  A 0.50 0.50 0.0 0 1 911.99 811.75
  L 859.50 811.75
  A 0.42 0.42 0.0 0 1 859.08 811.30
  C 862.34 760.98 860.76 709.95 860.75 659.51
  C 860.75 642.04 859.09 625.82 856.11 609.11
  A 0.47 0.47 0.0 0 0 855.33 608.85
  C 825.22 637.48 813.58 684.98 809.30 724.72
  Q 808.39 733.15 808.45 744.68
  Q 808.59 776.14 808.47 807.56
  A 0.45 0.45 0.0 0 1 808.02 808.00
  L 753.29 808.00
  A 0.53 0.53 0.0 0 1 752.76 807.46
  Q 753.80 755.06 754.32 702.50
  Q 754.65 668.67 749.02 641.25
  C 745.89 626.05 741.17 610.91 732.64 598.50
  Q 732.35 598.08 732.55 597.60
  C 740.55 578.16 750.40 558.31 763.41 541.76
  A 0.82 0.81 -48.0 0 1 764.64 541.69
  Q 768.99 546.12 772.35 551.62
  C 782.43 568.17 789.50 586.09 795.98 604.29
  Q 796.21 604.93 796.51 604.33
  Z"
/>
<path fill="#000000" d="
  M 525.50 900.51
  L 525.50 944.00
  A 0.50 0.50 0.0 0 1 525.00 944.50
  L 513.25 944.50
  Q 512.75 944.50 512.75 944.00
  L 512.75 843.76
  A 0.45 0.45 0.0 0 1 513.19 843.31
  Q 523.89 843.11 534.66 843.29
  C 551.07 843.58 562.87 847.05 564.59 865.57
  C 566.17 882.56 559.43 897.23 540.92 899.66
  Q 537.51 900.10 526.03 899.98
  Q 525.50 899.97 525.50 900.51
  Z
  M 546.33 856.16
  C 540.97 852.22 532.42 852.41 526.14 852.81
  A 0.68 0.68 0.0 0 0 525.50 853.49
  L 525.50 889.76
  Q 525.50 890.39 526.13 890.43
  C 531.91 890.76 538.90 891.10 543.70 888.04
  C 553.09 882.06 555.80 863.14 546.33 856.16
  Z"
/>
<path fill="#000000" d="
  M 591.00 896.05
  L 591.00 934.08
  A 0.67 0.67 0.0 0 0 591.67 934.75
  L 623.33 934.75
  A 0.67 0.67 0.0 0 1 624.00 935.42
  L 624.00 943.83
  A 0.67 0.67 0.0 0 1 623.33 944.50
  L 578.92 944.50
  A 0.67 0.67 0.0 0 1 578.25 943.83
  L 578.25 843.92
  A 0.67 0.67 0.0 0 1 578.92 843.25
  L 621.83 843.25
  A 0.67 0.67 0.0 0 1 622.50 843.92
  L 622.50 852.32
  A 0.67 0.67 0.0 0 1 621.83 852.99
  L 591.67 853.03
  A 0.67 0.67 0.0 0 0 591.00 853.70
  L 591.00 884.86
  A 0.67 0.67 0.0 0 0 591.67 885.53
  L 615.86 885.49
  A 0.67 0.67 0.0 0 1 616.53 886.16
  L 616.48 894.89
  A 0.67 0.67 0.0 0 1 615.81 895.55
  L 591.67 895.38
  A 0.67 0.67 0.0 0 0 591.00 896.05
  Z"
/>
<path fill="#000000" d="
  M 652.75 900.75
  L 652.75 944.00
  A 0.50 0.50 0.0 0 1 652.25 944.50
  L 641.00 944.50
  Q 640.25 944.50 640.25 943.75
  L 640.25 843.58
  A 0.32 0.32 0.0 0 1 640.57 843.26
  Q 653.37 843.23 666.25 843.24
  C 678.62 843.24 689.33 847.47 692.12 860.67
  C 694.97 874.21 692.18 891.25 678.62 898.19
  Q 678.15 898.44 678.36 898.92
  L 697.88 943.87
  Q 698.15 944.50 697.47 944.50
  L 686.25 944.50
  Q 685.70 944.50 685.48 944.00
  L 666.33 900.74
  A 0.84 0.81 -11.2 0 0 665.57 900.25
  L 653.25 900.25
  Q 652.75 900.25 652.75 900.75
  Z
  M 680.31 866.21
  C 678.43 851.86 664.41 852.28 653.63 852.82
  Q 653.00 852.85 653.00 853.48
  L 653.00 890.02
  Q 653.00 890.65 653.63 890.63
  C 658.61 890.43 664.68 891.03 668.92 889.62
  C 678.84 886.33 681.56 875.78 680.31 866.21
  Z"
/>
<path fill="#000000" d="
  M 740.78 922.32
  C 745.37 897.99 718.10 896.89 710.81 879.16
  C 707.69 871.57 708.45 861.26 712.78 854.27
  C 720.14 842.41 733.73 842.79 746.30 843.33
  Q 746.75 843.35 746.75 843.80
  L 746.75 852.23
  Q 746.75 852.73 746.25 852.73
  C 735.63 852.81 723.99 851.18 721.77 865.04
  C 719.48 879.31 736.05 885.05 744.15 893.21
  Q 755.95 905.09 753.76 921.55
  C 750.46 946.37 729.41 944.63 710.51 944.51
  Q 710.00 944.50 710.00 943.99
  L 710.00 935.52
  A 0.49 0.49 0.0 0 1 710.49 935.03
  C 722.49 934.91 737.70 938.67 740.78 922.32
  Z"
/>
<rect fill="#000000" x="768.26" y="843.26" width="12.74" height="101.24" rx="0.57"/>
<path fill="#000000" d="
  M 813.16 915.14
  L 806.86 944.11
  A 0.50 0.50 0.0 0 1 806.37 944.50
  L 795.09 944.50
  A 0.50 0.50 0.0 0 1 794.60 943.89
  L 817.22 843.64
  A 0.50 0.50 0.0 0 1 817.71 843.25
  L 836.17 843.25
  A 0.50 0.50 0.0 0 1 836.66 843.64
  L 858.41 943.89
  A 0.50 0.50 0.0 0 1 857.92 944.50
  L 847.07 944.50
  A 0.50 0.50 0.0 0 1 846.59 944.12
  L 839.68 915.13
  A 0.50 0.50 0.0 0 0 839.20 914.75
  L 813.65 914.75
  A 0.50 0.50 0.0 0 0 813.16 915.14
  Z
  M 815.58 904.13
  A 0.62 0.62 0.0 0 0 816.19 904.87
  L 836.61 904.91
  A 0.62 0.62 0.0 0 0 837.22 904.17
  L 827.10 853.26
  A 0.62 0.62 0.0 0 0 825.88 853.26
  L 815.58 904.13
  Z"
/>
<path fill="#000000" d="
  M 883.55 854.78
  L 883.48 944.01
  Q 883.48 944.50 882.99 944.50
  L 871.25 944.50
  Q 870.75 944.50 870.75 944.00
  L 870.75 844.00
  A 0.75 0.75 0.0 0 1 871.50 843.25
  L 891.78 843.25
  Q 892.13 843.25 892.23 843.59
  L 915.41 929.75
  A 0.19 0.19 0.0 0 0 915.78 929.70
  L 915.74 843.76
  A 0.51 0.50 -90.0 0 1 916.24 843.25
  L 928.00 843.25
  A 0.75 0.75 0.0 0 1 928.75 844.00
  L 928.75 943.75
  A 0.75 0.75 0.0 0 1 928.00 944.50
  L 910.77 944.50
  A 0.58 0.58 0.0 0 1 910.21 944.08
  L 884.24 854.69
  A 0.35 0.35 0.0 0 0 883.55 854.78
  Z"
/>
<path fill="#000000" d="
  M 417.75 1103.28
  C 400.87 1106.44 382.38 1100.13 382.18 1079.93
  Q 381.74 1036.37 382.09 1024.32
  C 382.63 1005.56 399.94 998.44 416.27 1001.21
  Q 431.57 1003.81 435.83 1016.37
  Q 437.43 1021.09 437.48 1035.45
  Q 437.55 1055.84 437.51 1076.25
  C 437.48 1089.81 432.21 1100.57 417.75 1103.28
  Z
  M 424.72 1024.05
  A 13.71 13.71 0.0 0 0 411.01 1010.34
  L 408.47 1010.34
  A 13.71 13.71 0.0 0 0 394.76 1024.05
  L 394.76 1080.69
  A 13.71 13.71 0.0 0 0 408.47 1094.40
  L 411.01 1094.40
  A 13.71 13.71 0.0 0 0 424.72 1080.69
  L 424.72 1024.05
  Z"
/>
<path fill="#000000" d="
  M 1003.51 1103.48
  C 990.85 1101.71 982.70 1092.33 982.59 1079.55
  Q 982.46 1063.64 982.59 1026.02
  C 982.64 1013.08 989.57 1004.18 1002.11 1001.55
  C 1019.16 997.99 1037.71 1005.07 1037.89 1024.94
  Q 1038.08 1044.65 1037.91 1078.73
  C 1037.82 1099.29 1021.35 1105.98 1003.51 1103.48
  Z
  M 1025.23 1024.08
  A 13.74 13.74 0.0 0 0 1011.49 1010.34
  L 1009.01 1010.34
  A 13.74 13.74 0.0 0 0 995.27 1024.08
  L 995.27 1080.66
  A 13.74 13.74 0.0 0 0 1009.01 1094.40
  L 1011.49 1094.40
  A 13.74 13.74 0.0 0 0 1025.23 1080.66
  L 1025.23 1024.08
  Z"
/>
<path fill="#000000" d="
  M 1066.75 1012.00
  Q 1066.60 1012.00 1066.45 1012.00
  Q 1066.27 1012.00 1066.27 1012.19
  L 1066.25 1102.47
  Q 1066.25 1103.00 1065.72 1103.00
  L 1054.12 1103.00
  Q 1053.50 1103.00 1053.50 1102.37
  L 1053.50 1002.37
  Q 1053.50 1001.75 1054.13 1001.75
  L 1074.31 1001.75
  Q 1074.89 1001.75 1075.04 1002.31
  L 1097.81 1086.79
  Q 1098.50 1089.36 1098.50 1086.70
  L 1098.50 1002.22
  A 0.53 0.52 -0.0 0 1 1099.03 1001.70
  L 1110.88 1001.77
  Q 1111.47 1001.78 1111.47 1002.38
  L 1111.51 1102.24
  A 0.76 0.75 -90.0 0 1 1110.76 1103.00
  L 1093.51 1103.00
  A 0.54 0.53 82.0 0 1 1093.00 1102.61
  Q 1080.30 1058.89 1067.55 1015.19
  Q 1067.11 1013.71 1066.95 1012.18
  Q 1066.93 1011.99 1066.75 1012.00
  Z"
/>
<path fill="#000000" d="
  M 372.41 1102.97
  C 346.41 1103.39 325.73 1105.19 325.71 1072.75
  Q 325.69 1051.01 325.81 1029.27
  C 325.98 998.58 349.96 1001.66 372.31 1001.76
  A 0.49 0.48 89.4 0 1 372.79 1002.24
  L 372.79 1010.60
  A 0.65 0.64 -0.4 0 1 372.14 1011.25
  C 364.39 1011.25 352.07 1010.09 346.16 1012.82
  C 339.07 1016.09 338.52 1022.45 338.51 1030.20
  Q 338.48 1052.18 338.51 1074.15
  C 338.53 1090.14 343.44 1093.36 359.25 1093.50
  Q 365.70 1093.55 372.08 1093.47
  A 0.68 0.68 0.0 0 1 372.76 1094.14
  L 372.82 1102.55
  Q 372.83 1102.96 372.41 1102.97
  Z"
/>
<path fill="#000000" d="
  M 465.75 1012.76
  L 465.76 1102.59
  A 0.42 0.41 -0.7 0 1 465.35 1103.00
  L 453.63 1103.00
  Q 453.00 1103.00 453.00 1102.38
  L 453.00 1002.50
  A 0.75 0.75 0.0 0 1 453.75 1001.75
  L 473.79 1001.75
  Q 474.35 1001.75 474.50 1002.29
  L 497.51 1087.70
  A 0.25 0.25 0.0 0 0 498.00 1087.64
  L 498.00 1002.25
  Q 498.00 1001.75 498.50 1001.75
  L 510.25 1001.75
  Q 510.75 1001.75 510.75 1002.25
  L 510.75 1102.00
  A 1.00 1.00 0.0 0 1 509.75 1103.00
  L 493.00 1103.00
  A 0.59 0.59 0.0 0 1 492.43 1102.57
  L 466.33 1012.68
  A 0.30 0.30 0.0 0 0 465.75 1012.76
  Z"
/>
<path fill="#000000" d="
  M 548.09 1055.71
  C 536.11 1047.48 526.18 1039.80 528.30 1023.23
  Q 530.75 1004.01 550.83 1001.83
  Q 554.09 1001.48 565.44 1001.86
  Q 566.00 1001.88 566.00 1002.44
  L 566.00 1010.47
  A 0.79 0.79 0.0 0 1 565.21 1011.26
  C 557.63 1011.21 547.33 1009.35 542.94 1017.90
  C 534.79 1033.78 550.39 1041.34 560.58 1049.18
  C 570.63 1056.92 574.51 1068.64 572.81 1080.89
  C 569.55 1104.33 547.63 1103.40 529.70 1102.98
  Q 528.97 1102.96 528.98 1102.24
  L 529.05 1094.07
  Q 529.05 1093.52 529.61 1093.51
  C 540.62 1093.50 555.72 1096.78 559.52 1082.57
  C 562.68 1070.73 557.52 1062.19 548.09 1055.71
  Z"
/>
<path fill="#000000" d="
  M 579.75 1010.59
  L 579.75 1002.41
  A 0.66 0.66 0.0 0 1 580.41 1001.75
  L 632.34 1001.75
  A 0.66 0.66 0.0 0 1 633.00 1002.41
  L 633.00 1010.59
  A 0.66 0.66 0.0 0 1 632.34 1011.25
  L 613.41 1011.25
  A 0.66 0.66 0.0 0 0 612.75 1011.91
  L 612.75 1102.34
  A 0.66 0.66 0.0 0 1 612.09 1103.00
  L 600.66 1103.00
  A 0.66 0.66 0.0 0 1 600.00 1102.34
  L 600.00 1011.91
  A 0.66 0.66 0.0 0 0 599.34 1011.25
  L 580.41 1011.25
  A 0.66 0.66 0.0 0 1 579.75 1010.59
  Z"
/>
<path fill="#000000" d="
  M 659.00 1059.31
  L 659.00 1102.50
  A 0.50 0.50 0.0 0 1 658.50 1103.00
  L 647.00 1103.00
  A 0.50 0.50 0.0 0 1 646.50 1102.50
  L 646.50 1002.26
  Q 646.50 1001.77 646.99 1001.77
  C 658.32 1001.72 672.65 1000.26 683.46 1003.18
  C 700.44 1007.78 701.25 1027.46 697.21 1041.49
  Q 694.23 1051.85 684.75 1056.53
  A 0.57 0.57 0.0 0 0 684.48 1057.27
  L 703.98 1102.26
  A 0.53 0.53 0.0 0 1 703.50 1103.00
  L 692.51 1103.00
  A 0.97 0.96 -11.5 0 1 691.62 1102.42
  L 672.39 1059.06
  Q 672.25 1058.74 671.89 1058.73
  L 659.69 1058.63
  A 0.68 0.68 0.0 0 0 659.00 1059.31
  Z
  M 680.81 1014.44
  C 674.86 1010.24 666.71 1011.16 659.73 1011.28
  Q 659.26 1011.29 659.26 1011.76
  L 659.23 1048.50
  A 0.51 0.51 0.0 0 0 659.73 1049.01
  C 669.54 1049.15 679.36 1050.31 684.48 1039.73
  C 687.92 1032.62 688.34 1019.75 680.81 1014.44
  Z"
/>
<path fill="#000000" d="
  M 728.08 1102.40
  C 715.59 1098.70 713.60 1086.92 713.56 1075.46
  Q 713.43 1038.87 713.53 1002.25
  Q 713.53 1001.75 714.02 1001.75
  L 725.70 1001.75
  Q 726.23 1001.75 726.23 1002.28
  Q 726.30 1038.64 726.23 1074.95
  C 726.21 1084.76 726.83 1094.23 738.52 1094.40
  C 746.40 1094.51 751.98 1089.80 752.09 1081.75
  Q 752.47 1054.63 752.16 1002.37
  Q 752.16 1001.75 752.78 1001.75
  L 764.23 1001.75
  Q 764.74 1001.75 764.74 1002.26
  Q 764.76 1041.25 764.75 1080.25
  C 764.74 1101.62 745.19 1107.47 728.08 1102.40
  Z"
/>
<path fill="#000000" d="
  M 823.73 1102.93
  C 805.05 1103.36 777.65 1105.88 777.37 1078.30
  Q 777.20 1060.43 777.28 1029.75
  C 777.38 998.35 801.50 1001.73 823.72 1001.73
  Q 824.25 1001.73 824.25 1002.25
  L 824.25 1010.73
  A 0.51 0.51 0.0 0 1 823.74 1011.24
  C 815.95 1011.27 803.67 1010.09 797.74 1012.76
  C 790.55 1016.00 789.98 1022.35 789.99 1030.14
  Q 790.02 1054.08 790.07 1078.01
  C 790.11 1097.56 810.82 1093.60 823.72 1093.48
  A 0.55 0.55 0.0 0 1 824.27 1094.03
  L 824.28 1102.37
  A 0.56 0.56 0.0 0 1 823.73 1102.93
  Z"
/>
<path fill="#000000" d="
  M 830.25 1010.69
  L 830.25 1002.31
  A 0.56 0.56 0.0 0 1 830.81 1001.75
  L 882.94 1001.75
  A 0.56 0.56 0.0 0 1 883.50 1002.31
  L 883.50 1010.69
  A 0.56 0.56 0.0 0 1 882.94 1011.25
  L 863.80 1011.25
  A 0.56 0.56 0.0 0 0 863.24 1011.81
  L 863.25 1102.44
  A 0.56 0.56 0.0 0 1 862.69 1103.00
  L 851.06 1103.00
  A 0.56 0.56 0.0 0 1 850.50 1102.44
  L 850.50 1011.81
  A 0.56 0.56 0.0 0 0 849.94 1011.25
  L 830.81 1011.25
  A 0.56 0.56 0.0 0 1 830.25 1010.69
  Z"
/>
<rect fill="#000000" x="896.75" y="1001.75" width="12.76" height="101.24" rx="0.27"/>
<path fill="#000000" d="
  M 972.80 1102.97
  C 947.24 1103.31 926.60 1105.32 926.45 1073.67
  Q 926.36 1052.93 926.46 1032.13
  Q 926.51 1022.05 928.03 1017.51
  C 934.29 998.86 955.14 1001.40 972.91 1001.87
  Q 973.50 1001.89 973.50 1002.48
  L 973.49 1010.65
  A 0.60 0.60 0.0 0 1 972.89 1011.25
  Q 966.09 1011.25 959.34 1011.26
  C 947.37 1011.27 939.22 1013.23 939.24 1026.62
  Q 939.27 1052.13 939.23 1077.64
  C 939.22 1086.57 943.53 1093.30 953.35 1093.41
  Q 963.12 1093.52 972.98 1093.50
  Q 973.50 1093.50 973.50 1094.02
  L 973.50 1102.26
  A 0.71 0.71 0.0 0 1 972.80 1102.97
  Z"
/>
</svg>
